<svg width="40" height="40" viewBox="0 0 40 40" fill="none" xmlns="http://www.w3.org/2000/svg">
    <circle cx="19.8581" cy="19.8577" r="19.8577" fill="#55ACEE"/>
    <path d="M32.0216 14.2713C31.1706 14.6486 30.2552 14.9038 29.2952 15.0178C30.2754 14.4305 31.0276 13.5013 31.3826 12.3923C30.4655 12.9364 29.4492 13.3311 28.3685 13.5438C27.5026 12.6217 26.269 12.0454 24.903 12.0454C22.2821 12.0454 20.1564 14.1711 20.1564 16.792C20.1564 17.164 20.1986 17.5261 20.28 17.8737C16.3352 17.6759 12.8375 15.7863 10.4963 12.9137C10.0878 13.6146 9.85342 14.4305 9.85342 15.3003C9.85342 16.9466 10.692 18.4001 11.9649 19.2511C11.1872 19.2266 10.4548 19.0132 9.81519 18.6567C9.81484 18.6769 9.81484 18.6971 9.81484 18.7169C9.81484 21.0167 11.4516 22.935 13.6226 23.3707C13.2247 23.4797 12.8046 23.5374 12.3724 23.5374C12.0658 23.5374 11.7688 23.5081 11.4793 23.4528C12.0832 25.3382 13.8357 26.7105 15.9132 26.7491C14.2885 28.0224 12.2421 28.781 10.0177 28.781C9.63537 28.781 9.25661 28.7587 8.88599 28.7144C10.9855 30.0617 13.481 30.8472 16.1614 30.8472C24.892 30.8472 29.6665 23.6146 29.6665 17.3417C29.6665 17.136 29.6619 16.9311 29.6527 16.7279C30.5809 16.0589 31.3855 15.2231 32.0216 14.2713Z" fill="white"/>
</svg>