<svg width="40" height="40" viewBox="0 0 40 40" fill="none" xmlns="http://www.w3.org/2000/svg">
    <circle cx="19.955" cy="19.955" r="19.955" fill="url(#paint0_linear)"/>
    <path fill-rule="evenodd" clip-rule="evenodd" d="M19.4979 8.01109C19.1179 8.01107 18.7395 8.00834 18.3639 8.00563C14.0848 7.97476 10.1788 7.94658 8.60842 11.9737C7.98486 13.5726 7.99228 15.5935 8.00246 18.3637C8.0038 18.7287 8.00519 19.1067 8.00519 19.4984C8.00519 19.8166 8.00409 20.1327 8.003 20.4458C7.99399 23.038 7.9857 25.4199 8.60842 27.0218C10.1751 31.0509 14.1109 31.0222 18.3673 30.9912C18.7421 30.9884 19.1193 30.9857 19.4977 30.9857C19.8925 30.9857 20.2883 30.9893 20.6832 30.9929H20.6834H20.6837H20.6839C24.8004 31.0303 28.8104 31.0667 30.3883 27.0218C31.0121 25.4089 31.0047 23.4166 30.9943 20.6474C30.9929 20.2785 30.9915 19.8958 30.9915 19.4984C30.9915 19.0687 30.9938 18.6535 30.996 18.2522C31.0167 14.4626 31.0307 11.9054 29.0612 9.9386C27.0839 7.96295 24.4821 7.9805 20.8097 8.00527C20.3869 8.00813 19.9498 8.01107 19.4979 8.01109ZM19.4979 8.01109L19.5003 8.01109H19.4951L19.4979 8.01109ZM20.3187 10.0689H20.3187C28.4535 9.99235 29.5004 9.98249 28.8562 24.1363C28.6336 29.0055 25.2441 28.9683 20.862 28.9202H20.8618H20.8616H20.8614C20.4176 28.9154 19.9635 28.9104 19.5016 28.9104C10.3429 28.9104 10.0795 28.6486 10.0795 19.4932C10.0795 10.2315 10.806 10.0864 18.4703 10.0786V10.0812C19.1237 10.0801 19.7391 10.0744 20.3186 10.0689H20.3186H20.3187ZM24.2574 13.3659C24.2574 12.605 24.8749 11.988 25.6364 11.988C26.3979 11.988 27.0154 12.605 27.0154 13.3659C27.0154 14.1268 26.3979 14.7438 25.6364 14.7438C24.8749 14.7438 24.2574 14.1268 24.2574 13.3659ZM19.5003 13.5992C16.2403 13.5992 13.5977 16.2409 13.5977 19.4984C13.5977 22.7558 16.2403 25.3963 19.5003 25.3963C22.7603 25.3963 25.4016 22.7558 25.4016 19.4984C25.4016 16.2409 22.7603 13.5992 19.5003 13.5992ZM19.5003 15.6693C24.5661 15.6693 24.5726 23.3275 19.5003 23.3275C14.4358 23.3275 14.428 15.6693 19.5003 15.6693Z" fill="white"/>
    <defs>
        <linearGradient id="paint0_linear" x1="20.0138" y1="54.6497" x2="54.6933" y2="19.9813" gradientUnits="userSpaceOnUse">
            <stop stop-color="#FFDD55"/>
            <stop offset="0.5" stop-color="#FF543E"/>
            <stop offset="1" stop-color="#C837AB"/>
        </linearGradient>
    </defs>
</svg>