<svg xmlns="http://www.w3.org/2000/svg" viewBox="0 0 1024 1024" width="40" height="40"><defs><style>.a{fill:red;}.b{fill:#fff;}</style></defs><path class="a" d="M512.08,2.85c282.45.46,510.41,229.33,509.05,511.88-1.35,279-227.52,506.61-509.38,506.42C229.47,1021,2.63,792.81,2.87,510.16,3.1,230.66,231.84,2.78,512.08,2.85Z"/><path class="b" d="M511.72,751.86c-66.32-2.43-132.67-4.49-199-7.48a378.52,378.52,0,0,1-59.9-7c-38.41-8-60.69-33-68.61-71.06-6.15-29.58-8.65-59.61-9.93-89.69-1.2-28.42-2.1-56.89-1.61-85.31.77-44.75,2.54-89.5,11.39-133.58,8.76-43.63,36.38-68.79,80.88-74.59,39.5-5.14,79.2-7.11,119-8.19,35.75-1,71.51-1.76,107.28-2.1,78-.74,156,.78,233.91,6.63,15.56,1.17,31.26,2.76,46.45,6.14,38.13,8.47,60.24,33.14,68.12,71,6.15,29.58,8.65,59.61,9.93,89.7,1.2,28.41,2.1,56.88,1.61,85.3-.77,44.75-2.54,89.51-11.4,133.59C831.08,708.82,803.46,734,759,739.78c-39.5,5.14-79.2,7.1-119,8.19-35.76,1-71.52,1.48-107.28,2.14-7,.13-14,0-21,0Z"/><path class="a" d="M619.27,511.45l-176.19,100V411.41Z"/></svg>